<?xml version="1.0" standalone="no"?>
<!DOCTYPE svg PUBLIC "-//W3C//DTD SVG 20010904//EN"
 "http://www.w3.org/TR/2001/REC-SVG-20010904/DTD/svg10.dtd">
<svg version="1.0" xmlns="http://www.w3.org/2000/svg"
 width="220.000000pt" height="220.000000pt" viewBox="0 0 220.000000 220.000000"
 preserveAspectRatio="xMidYMid meet">
<metadata>
Created by potrace 1.11, written by Peter Selinger 2001-2013
</metadata>
<g transform="translate(0.000000,220.000000) scale(0.100000,-0.100000)"
fill="#000000" stroke="none">
<path d="M970 2180 c0 -18 -7 -20 -60 -20 l-60 0 0 -30 c0 -27 -3 -30 -30 -30
-27 0 -30 -3 -30 -30 0 -27 -3 -30 -30 -30 -27 0 -30 -3 -30 -30 0 -27 -3 -30
-30 -30 l-30 0 0 -60 0 -60 -30 0 -30 0 0 -180 0 -180 30 0 30 0 0 -60 0 -60
30 0 c27 0 30 -3 30 -30 0 -27 3 -30 30 -30 27 0 30 -3 30 -30 0 -27 3 -30 30
-30 27 0 30 -3 30 -30 0 -27 3 -30 30 -30 27 0 30 -3 30 -30 0 -27 -3 -30 -30
-30 -27 0 -30 -3 -30 -30 0 -27 -3 -30 -30 -30 -27 0 -30 -3 -30 -30 l0 -30
-60 0 -60 0 0 -30 c0 -27 -3 -30 -30 -30 l-30 0 0 -60 0 -60 -30 0 c-27 0 -30
-3 -30 -30 0 -27 -3 -30 -30 -30 -27 0 -30 -3 -30 -30 0 -16 -4 -30 -10 -30
-6 0 -10 -27 -10 -60 0 -33 4 -60 10 -60 6 0 10 -27 10 -60 0 -33 -4 -60 -10
-60 -6 0 -10 -57 -10 -150 0 -93 4 -150 10 -150 6 0 10 -13 10 -30 l0 -30 90
0 90 0 0 30 c0 27 -3 30 -30 30 -27 0 -30 3 -30 30 0 27 -3 30 -30 30 -27 0
-30 3 -30 30 0 27 3 30 30 30 l30 0 0 90 0 90 30 0 30 0 0 -60 0 -60 30 0 c27
0 30 -3 30 -30 0 -27 3 -30 30 -30 27 0 30 -3 30 -30 0 -27 3 -30 30 -30 l30
0 0 -60 0 -60 -30 0 c-27 0 -30 -3 -30 -30 0 -27 -3 -30 -30 -30 -27 0 -30 -3
-30 -30 l0 -30 180 0 180 0 0 30 c0 27 -3 30 -30 30 l-30 0 0 90 0 90 60 0 60
0 0 -60 0 -60 30 0 30 0 0 -60 0 -60 150 0 150 0 0 60 0 60 -30 0 c-27 0 -30
3 -30 30 0 27 3 30 30 30 27 0 30 3 30 30 0 27 3 30 30 30 27 0 30 3 30 30 0
27 3 30 30 30 l30 0 0 90 0 90 -30 0 -30 0 0 60 0 60 -30 0 c-27 0 -30 3 -30
30 0 27 3 30 30 30 l30 0 0 60 0 60 -30 0 c-27 0 -30 3 -30 30 0 27 -3 30 -30
30 l-30 0 0 60 0 60 -30 0 c-27 0 -30 3 -30 30 0 27 -3 30 -30 30 -27 0 -30 3
-30 30 l0 30 -60 0 -60 0 0 30 0 30 60 0 60 0 0 30 0 30 60 0 60 0 0 30 c0 27
3 30 30 30 27 0 30 3 30 30 0 27 3 30 30 30 27 0 30 3 30 30 0 27 3 30 30 30
l30 0 0 60 0 60 30 0 30 0 0 180 0 180 -30 0 -30 0 0 60 0 60 -30 0 c-27 0
-30 3 -30 30 0 27 -3 30 -30 30 -27 0 -30 3 -30 30 0 27 -3 30 -30 30 -27 0
-30 3 -30 30 l0 30 -60 0 c-53 0 -60 2 -60 20 0 19 -7 20 -180 20 -173 0 -180
-1 -180 -20z m-180 -1490 c0 -27 -3 -30 -30 -30 -27 0 -30 -3 -30 -30 0 -27
-3 -30 -30 -30 l-30 0 0 60 0 60 60 0 60 0 0 -30z m-60 -180 c0 -27 -3 -30
-30 -30 -27 0 -30 3 -30 30 0 27 3 30 30 30 27 0 30 -3 30 -30z m720 -60 c0
-27 -3 -30 -30 -30 -27 0 -30 3 -30 30 0 27 3 30 30 30 27 0 30 -3 30 -30z
m60 -120 c0 -27 -3 -30 -30 -30 -27 0 -30 3 -30 30 0 27 3 30 30 30 27 0 30
-3 30 -30z"/>
</g>
</svg>
